<svg xmlns="http://www.w3.org/2000/svg" width="230" height="51" viewBox="0 0 230 51">
    <defs>
        <clipPath id="52imk1mj7a">
            <path data-name="사각형 54141" style="fill:none" d="M0 0h230v51H0z"/>
        </clipPath>
    </defs>
    <path data-name="패스 33183" d="M63.765 28.253v-9.085l-3.916 5.945h-.08l-3.877-5.885v9.026h-3V14.337h3.3l3.659 5.884 3.659-5.884h3.3v13.916z" transform="translate(.442 -.085)" style="fill:#4e4e4e"/>
    <g data-name="그룹 52276">
        <g data-name="그룹 52275" style="clip-path:url(#52imk1mj7a)">
            <path data-name="패스 33184" d="M76.71 28.322a7.082 7.082 0 0 1-7.361-7.071v-.04a7.386 7.386 0 0 1 14.76-.039v.039a7.148 7.148 0 0 1-7.4 7.111m4.205-7.111a4.2 4.2 0 0 0-4.205-4.321 4.131 4.131 0 0 0-4.167 4.282v.039a4.2 4.2 0 0 0 4.206 4.322 4.131 4.131 0 0 0 4.166-4.282z" transform="translate(.589 -.021)" style="fill:#4e4e4e"/>
            <path data-name="패스 33185" d="m96.415 28.087-6.725-8.742v8.741h-3.017V14.337h2.818L96 22.8v-8.463h3.014v13.75z" transform="translate(.737 -.021)" style="fill:#4e4e4e"/>
            <path data-name="패스 33186" d="M107.156 28.282a8.888 8.888 0 0 1-5.892-2.2l1.805-2.141a6.4 6.4 0 0 0 4.146 1.67c1.25 0 2-.491 2-1.3v-.039c0-.766-.476-1.159-2.8-1.747-2.8-.708-4.6-1.474-4.6-4.2v-.039c0-2.5 2.023-4.145 4.86-4.145a8.092 8.092 0 0 1 5.158 1.747l-1.587 2.279a6.553 6.553 0 0 0-3.61-1.355c-1.171 0-1.786.53-1.786 1.2v.039c0 .9.6 1.2 3 1.807 2.817.727 4.4 1.728 4.4 4.125v.039c0 2.73-2.1 4.263-5.1 4.263" transform="translate(.861 -.021)" style="fill:#4e4e4e"/>
            <path data-name="패스 33187" d="M120.8 17.126v10.961h-3.056V17.126h-4.226v-2.789h11.506v2.789z" transform="translate(.965 -.021)" style="fill:#4e4e4e"/>
            <path data-name="패스 33188" d="M127.241 28.087v-13.75h10.475v2.691h-7.44v2.789h6.547v2.692h-6.547V25.4h7.538v2.691z" transform="translate(1.081 -.021)" style="fill:#4e4e4e"/>
            <path data-name="패스 33189" d="m148.848 28.087-2.976-4.4h-2.4v4.4h-3.056v-13.75h6.348c3.274 0 5.238 1.708 5.238 4.537v.039a4.274 4.274 0 0 1-2.976 4.263l3.393 4.911zm.059-9.056c0-1.3-.913-1.964-2.4-1.964h-3.036v3.948h3.1c1.488 0 2.341-.786 2.341-1.944z" transform="translate(1.193 -.021)" style="fill:#4e4e4e"/>
            <path data-name="패스 33190" d="M167.045 28.322a6.974 6.974 0 0 1-7.122-7.071v-.04a7.023 7.023 0 0 1 7.241-7.111 7.2 7.2 0 0 1 5.475 2.122l-1.944 2.22a5.147 5.147 0 0 0-3.55-1.552 4.092 4.092 0 0 0-4.029 4.282v.039a4.1 4.1 0 0 0 4.029 4.322 5.033 5.033 0 0 0 3.65-1.611l1.943 1.944a7.126 7.126 0 0 1-5.693 2.455" transform="translate(1.359 -.021)" style="fill:#4e4e4e"/>
            <path data-name="패스 33191" d="M175.044 28.087v-13.75h3.056v11h6.923v2.75z" transform="translate(1.487 -.021)" style="fill:#4e4e4e"/>
            <path data-name="사각형 54139" transform="translate(188.946 14.316)" style="fill:#4e4e4e" d="M0 0h3.056v13.75H0z"/>
            <path data-name="패스 33192" d="m203.563 28.087-6.725-8.741v8.741h-3.016v-13.75h2.818l6.508 8.466v-8.466h3.014v13.75z" transform="translate(1.647 -.021)" style="fill:#4e4e4e"/>
            <path data-name="사각형 54140" transform="translate(211.275 14.316)" style="fill:#4e4e4e" d="M0 0h3.056v13.75H0z"/>
            <path data-name="패스 33193" d="M222.477 28.322a6.975 6.975 0 0 1-7.123-7.071v-.04A7.023 7.023 0 0 1 222.6 14.1a7.2 7.2 0 0 1 5.475 2.122l-1.945 2.22a5.147 5.147 0 0 0-3.549-1.552 4.092 4.092 0 0 0-4.03 4.282v.039a4.1 4.1 0 0 0 4.03 4.322 5.031 5.031 0 0 0 3.649-1.611l1.943 1.944a7.125 7.125 0 0 1-5.692 2.455" transform="translate(1.83 -.021)" style="fill:#4e4e4e"/>
            <path data-name="패스 33194" d="M98.192 43.574h-2.479v-6.582h2.479a3.3 3.3 0 1 1 0 6.582m0-5.529h-1.31v4.475h1.31a2.239 2.239 0 1 0 0-4.475" transform="translate(.813 -.054)" style="fill:#4e4e4e"/>
            <path data-name="패스 33195" d="M108.946 38.026h-3.761v1.711h3.333v1.034h-3.333v1.767h3.808v1.034h-4.977v-6.581h4.93z" transform="translate(.884 -.054)" style="fill:#4e4e4e"/>
            <path data-name="패스 33196" d="M115.528 43.574 113.9 41.28h-1.463v2.295h-1.168v-6.583h2.963c1.529 0 2.47.8 2.47 2.088a1.977 1.977 0 0 1-1.586 2l1.794 2.491zm-1.4-5.529h-1.7v2.21h1.71c.835 0 1.367-.432 1.367-1.109 0-.725-.512-1.1-1.377-1.1" transform="translate(.946 -.054)" style="fill:#4e4e4e"/>
            <path data-name="패스 33197" d="M122.279 41.957h-.037l-2.081-3.084v4.7h-1.149v-6.581h1.243l2.023 3.112 2.023-3.112h1.243v6.582h-1.167v-4.721z" transform="translate(1.011 -.054)" style="fill:#4e4e4e"/>
            <path data-name="패스 33198" d="M134.49 43.574h-1.233l-.675-1.589h-3.144l-.683 1.589h-1.2l2.925-6.629h1.083zm-3.484-5.247-1.141 2.633h2.289z" transform="translate(1.084 -.054)" style="fill:#4e4e4e"/>
            <path data-name="패스 33199" d="M138.47 43.574h-1.178v-5.511h-2.108v-1.071h5.393v1.071h-2.107z" transform="translate(1.149 -.054)" style="fill:#4e4e4e"/>
            <path data-name="패스 33200" d="M145.513 43.687A3.4 3.4 0 1 1 149 40.274a3.36 3.36 0 0 1-3.484 3.413m0-5.746a2.235 2.235 0 0 0-2.241 2.333 2.267 2.267 0 0 0 2.259 2.351 2.237 2.237 0 0 0 2.242-2.333 2.267 2.267 0 0 0-2.26-2.351" transform="translate(1.207 -.054)" style="fill:#4e4e4e"/>
            <path data-name="패스 33201" d="M151.281 36.992h1.169v5.529h3.494v1.053h-4.663z" transform="translate(1.286 -.054)" style="fill:#4e4e4e"/>
            <path data-name="패스 33202" d="M160.848 43.687a3.4 3.4 0 1 1 3.484-3.413 3.36 3.36 0 0 1-3.484 3.413m0-5.746a2.235 2.235 0 0 0-2.241 2.333 2.267 2.267 0 0 0 2.259 2.351 2.237 2.237 0 0 0 2.242-2.333 2.267 2.267 0 0 0-2.26-2.351" transform="translate(1.337 -.054)" style="fill:#4e4e4e"/>
            <path data-name="패스 33203" d="M169.77 43.687a3.284 3.284 0 0 1-3.447-3.4 3.371 3.371 0 0 1 3.428-3.413 3.606 3.606 0 0 1 2.555.894l-.74.875a2.617 2.617 0 0 0-1.862-.706 2.351 2.351 0 0 0 .1 4.692 2.726 2.726 0 0 0 1.606-.5V40.9h-1.7v-1h2.829v2.764a4.257 4.257 0 0 1-2.772 1.025" transform="translate(1.413 -.054)" style="fill:#4e4e4e"/>
            <path data-name="패스 33204" d="M177.794 43.574h-1.177v-2.6l-2.641-3.987h1.379l1.861 2.915 1.881-2.915h1.338l-2.64 3.959z" transform="translate(1.478 -.054)" style="fill:#4e4e4e"/>
            <path data-name="패스 33205" d="M45.124 26a14.913 14.913 0 0 0-20.94 0 14.559 14.559 0 0 0 0 20.734 14.913 14.913 0 0 0 20.94 0l-2.852-2.824a10.851 10.851 0 0 1-15.235 0 10.592 10.592 0 0 1 0-15.085 10.849 10.849 0 0 1 15.235 0z" transform="translate(.169 -.032)" style="fill:#ad3f32"/>
            <path data-name="패스 33206" d="M17.128 17.519 0 .561v30.8h4.034V10.2l13.094 12.968 17.7-17.52V0z" style="fill:#ad3f32"/>
            <path data-name="패스 33207" d="M32 33.787a.333.333 0 0 0-.069.067c-2.179 2.888-.147 6.047 2.63 6.047a3.531 3.531 0 0 0 3.549-3.513c0-2.752-3.2-4.764-6.11-2.6" transform="translate(.264 -.048)" style="fill:#ad3f32"/>
        </g>
    </g>
</svg>
