<svg xmlns="http://www.w3.org/2000/svg" width="38" height="38" viewBox="0 0 38 38">
    <defs>
        <clipPath id="qy4be5obla">
            <path data-name="사각형 54388" transform="translate(-.545 -.545)" style="fill:#fff" d="M0 0h38v38H0z"/>
        </clipPath>
    </defs>
    <path data-name="패스 33392" d="m.635 16.152 4.5 3.065v-6.979z" transform="translate(.443 -1.427)" style="fill:#fff"/>
    <path data-name="패스 33393" d="m38 19.217 4.5-3.065-4.5-3.914z" transform="translate(-5.578 -1.427)" style="fill:#fff"/>
    <g data-name="그룹 52550">
        <g data-name="그룹 52549" style="clip-path:url(#qy4be5obla)" transform="translate(.545 .545)">
            <path data-name="패스 33394" d="M0 18.891v16.883l3.907-2.888 7.979-5.9L5.4 22.57z" transform="translate(0 -3.044)" style="fill:#fff"/>
            <path data-name="패스 33395" d="m41.717 18.891-5.4 3.678-6.487 4.419 7.979 5.9 3.907 2.888z" transform="translate(-4.807 -3.044)" style="fill:#fff"/>
            <path data-name="패스 33396" d="M14.884 23.077H24.6l6.884-4.689V4.194A4.2 4.2 0 0 0 27.294 0h-15.1A4.2 4.2 0 0 0 8 4.194v14.194zm-2.69-16.366h15.1v1.678h-15.1zm0 6.711h15.1V15.1h-15.1z" transform="translate(-1.289)" style="fill:#fff"/>
            <path data-name="패스 33397" d="m36.884 39.549-8.707-6.436-4.874-3.6h-9.685L.037 39.549a2.521 2.521 0 0 0 2.486 2.116H34.4a2.521 2.521 0 0 0 2.485-2.116" transform="translate(-.006 -4.755)" style="fill:#fff"/>
        </g>
    </g>
</svg>
