<svg xmlns="http://www.w3.org/2000/svg" width="40" height="40" viewBox="0 0 40 40">
    <defs>
        <clipPath id="rlwwqp6cwa">
            <path data-name="사각형 51879" style="fill:#fff" d="M0 0h40v40H0z"/>
        </clipPath>
    </defs>
    <g data-name="그룹 7" style="clip-path:url(#rlwwqp6cwa)">
        <path data-name="패스 206" d="M71.424 20.6H69A18.2 18.2 0 0 0 50.819 2.423V0a20.629 20.629 0 0 1 20.605 20.6" transform="translate(-31.424 .001)" style="fill:#fff"/>
        <path data-name="패스 207" d="M65.2 30.687h-2.425a11.972 11.972 0 0 0-11.959-11.959V16.3A14.4 14.4 0 0 1 65.2 30.687" transform="translate(-31.422 -10.082)" style="fill:#fff"/>
        <path data-name="패스 208" d="M58.269 41.918h-2.424a5.034 5.034 0 0 0-5.028-5.028v-2.424a7.46 7.46 0 0 1 7.452 7.452" transform="translate(-31.423 -21.312)" style="fill:#fff"/>
        <path data-name="패스 209" d="M32.305 46.437a2.4 2.4 0 0 1-.619 1.329l-2.351 2.356c-8.015 6.71-18.193-3.285-18.294-3.386L5.719 41.41c-.1-.1-10.1-10.276-3.421-18.263l2.391-2.394a2.4 2.4 0 0 1 1.327-.619 2.181 2.181 0 0 1 .285-.019 1.218 1.218 0 0 1 .849.272l4.973 5.739a1.53 1.53 0 0 1 0 2.161L10.309 30.1a5.091 5.091 0 0 0-.963 1.392 6.529 6.529 0 0 0 1.7 6.867l3.054 3.062a6.508 6.508 0 0 0 6.882 1.67 5.105 5.105 0 0 0 1.372-.965l1.8-1.8a1.545 1.545 0 0 1 2.192.031l5.684 4.928a1.4 1.4 0 0 1 .273 1.152" transform="translate(0 -12.438)" style="fill:#fff"/>
    </g>
</svg>
