<svg xmlns="http://www.w3.org/2000/svg" width="43" height="40" viewBox="0 0 43 40">
    <defs>
        <clipPath id="2z6jaso1ga">
            <path data-name="사각형 51874" transform="translate(-.134 -.198)" style="fill:none" d="M0 0h43v40H0z"/>
        </clipPath>
    </defs>
    <g data-name="그룹 1" style="clip-path:url(#2z6jaso1ga)" transform="translate(.134 .198)">
        <path data-name="패스 201" d="m142.788 129.62-1.432 4.122h2.909l-1.431-4.118h-.046" transform="translate(-125.71 -115.146)" style="fill:#391b1b"/>
        <path data-name="패스 202" d="M21.366 0C9.565 0 0 7.629 0 17.04c0 6.126 4.053 11.494 10.136 14.5-.447 1.683-1.618 6.1-1.853 7.042-.289 1.172.426 1.157.895.841.367-.247 5.855-4.01 8.223-5.634a26.821 26.821 0 0 0 3.966.294c11.8 0 21.366-7.63 21.366-17.041S33.166 0 21.366 0M10.849 21.717a1.056 1.056 0 0 1-.306.74 1.032 1.032 0 0 1-.729.305h-.227a1.031 1.031 0 0 1-.731-.306 1.056 1.056 0 0 1-.306-.74v-7.55H6.52a1.072 1.072 0 0 1 0-2.144h6.248a1.072 1.072 0 0 1 0 2.144h-1.919zm10.228.99a1.031 1.031 0 0 1-1.317-.638l-.53-1.526h-4.26l-.53 1.526a1.032 1.032 0 0 1-1.317.638 1.045 1.045 0 0 1-.631-1.329l3.062-8.285a1.457 1.457 0 0 1 .06-.141 1.487 1.487 0 0 1 1.514-1.082 1.529 1.529 0 0 1 1.459.9l.01.01 3.114 8.594a1.045 1.045 0 0 1-.632 1.329m6.706-.014h-4.248a.968.968 0 0 1-.964-.974.993.993 0 0 1 .018-.185 1.14 1.14 0 0 1-.018-.186v-8.31a1.153 1.153 0 1 1 2.305 0v7.712h2.905a.973.973 0 0 1 0 1.947m9.079-.136a1.023 1.023 0 0 1-1.443-.207l-3.062-4.05-.658.663V21.6a1.153 1.153 0 1 1-2.306 0v-8.566a1.153 1.153 0 1 1 2.306 0v3.029l3.621-3.653a1.01 1.01 0 0 1 1.436 0 1.03 1.03 0 0 1 0 1.447L33.83 16.81l3.238 4.29a1.047 1.047 0 0 1-.205 1.457" style="fill:#391b1b"/>
    </g>
</svg>
